<svg xmlns="http://www.w3.org/2000/svg" enable-background="new 0 0 500 500" version="1.1" viewBox="0 0 600 500" xml:space="preserve" transform="matrix(1, 0, 0, 1, 0, 0)">
<path d="m392.76 353.22c-15.415-17.241-31.095-33.782-45.093-51.786-1.5043-1.9349-3.1529-3.8054-3.846-6.6134 3.6076-0.97461 5.4612 1.5023 7.4699 3.1232 19.032 15.357 37.09 31.824 55.015 48.441 3.7796 3.5038 7.6415 6.9215 11.349 10.5 4.2255 4.0786 4.7639 8.9399 1.5493 12.343-3.5189 3.7253-8.2191 3.3819-12.599-1.1522-4.6201-4.7828-9.079-9.7213-13.845-14.856z" fill="#9333ea"/>
<path d="m204.29 366.41c-5.1292 4.642-9.5044 4.9797-12.875 1.2391-3.28-3.64-2.8399-8.1432 1.6107-12.26 21.384-19.778 42.719-39.615 65.352-57.984 2.258-1.8325 4.3824-4.097 7.9021-4.371 0.65216 2.8538-1.3181 4.4239-2.6177 6.13-11.41 14.979-24.267 28.719-36.833 42.703-7.3414 8.1694-14.848 16.19-22.538 24.543z" fill="#9333ea"/>
<path d="m388.35 251.05c22.235-1.1097 44.005-2.1713 65.777-3.2185 1.4955-0.07193 3.0035-0.13892 4.4931-0.032226 5.1752 0.37062 8.0878 3.4903 7.9094 8.3653-0.16724 4.5673-3.1488 7.3646-8.3397 7.2436-12.811-0.29871-25.631-0.55209-38.422-1.2756-16.936-0.95801-33.909-1.5734-50.741-3.8641-2.6382-0.35904-5.6138-0.25412-8.4216-3.132 9.2372-3.2748 18.459-2.4865 27.745-4.0864z" fill="#9333ea"/>
<path d="m196.71 248.04c15.566 1.2218 30.728 1.5896 45.75 3.6575 2.7217 0.37466 5.5352 0.6067 8.2468 2.2043-1.1467 2.4241-3.2188 2.3183-5.0891 2.5882-13.851 1.9988-27.814 2.7628-41.761 3.5478-16.457 0.92621-32.934 1.5406-49.409 2.1115-5.4704 0.1896-8.408-2.3203-8.8142-6.7478-0.51524-5.6156 2.2537-8.8545 8.1751-8.7309 14.147 0.2952 28.287 0.87013 42.902 1.3694z" fill="#9333ea"/>
<path d="m306.89 94.559c5.3109 0.41318 7.5581 3.451 7.387 8.0288-0.71463 19.12-1.395 38.246-2.5416 57.342-0.72632 12.098-0.94049 24.274-3.403 36.222-0.26141 1.2684-0.054871 2.7276-1.8237 3.5019-2.5-1.8954-2.4185-4.8518-2.6502-7.5336-1.0307-11.927-2.1518-23.853-2.8068-35.803-0.95627-17.447-1.6317-34.911-2.2368-52.374-0.22018-6.3544 1.885-8.6158 8.0752-9.384z" fill="#9333ea"/>
<path d="m311.68 374.48c0.5632 11.094 1.1724 21.721 1.4716 32.357 0.1557 5.5346-2.6567 8.4449-7.5082 8.5558-5.1116 0.11685-8.2251-2.8361-8.0399-8.5596 0.66626-20.598 1.0783-41.205 2.8567-61.761 0.91595-10.587 0.9707-21.249 3.1611-31.709 0.23438-1.1191 0.14716-2.3776 2.7662-3.36 3.9548 21.35 4.3276 42.708 5.2925 64.477z" fill="#9333ea"/>
<path d="m345.31 215.62c3.9358-7.3002 9.286-13.244 14.592-19.196 14.074-15.788 28.24-31.493 42.384-47.219 1.5588-1.7332 3.1853-3.4074 4.8196-5.0705 4.9835-5.0714 9.8072-5.7654 13.404-1.9565 3.7309 3.9513 2.6805 8.412-2.6633 13.195-21.71 19.433-43.467 38.813-65.896 57.417-1.8331 1.5205-3.2846 4.4433-6.6403 2.8287z" fill="#9333ea"/>
<path d="m199.57 138.43c2.994 0.54448 4.7892 2.2971 6.4839 4.1411 19.256 20.953 38.652 41.782 56.645 63.854 2.0734 2.5434 4.3125 5.0374 5.2871 8.5815-2.4362 0.89983-3.5525-0.90675-4.7911-1.9293-23.492-19.393-46.116-39.782-68.839-60.057-2.7955-2.4943-4.4527-5.4485-3.1669-9.2909 1.269-3.7924 4.0333-5.5366 8.3812-5.299z" fill="#9333ea"/>
<path d="m281.42 298.5c0.74683-1.721 1.3915-3.0733 1.9433-4.4625 1.403-3.5322 3.3755-6.7133 7.7067-4.6994 4.1811 1.9441 3.2372 5.56 1.7441 9.0228-3.4216 7.9356-6.7783 15.899-10.165 23.85-4.0363 9.4762-8.1295 18.929-12.087 28.438-1.4522 3.4898-3.559 6.0347-7.5194 4.3799-4.0552-1.6945-3.4437-5.0582-2.0003-8.4465 6.7728-15.898 13.493-31.818 20.377-48.082z" fill="#9333ea"/>
<path d="m333.91 176.97c2.7226-6.2991 5.3022-12.246 7.8514-18.206 1.3612-3.1824 3.6435-5.0188 7.057-3.6568 3.4786 1.3879 3.7532 4.416 2.4392 7.5302-7.6878 18.22-15.406 36.427-23.19 54.605-1.3125 3.0652-3.7524 5.0927-7.1305 3.5115-3.1594-1.4788-3.7256-4.2939-2.3051-7.6131 5.0995-11.916 10.09-23.879 15.278-36.17z" fill="#9333ea"/>
<path d="m360.08 272.86c13.82 5.8698 27.286 11.599 40.753 17.328 0.61209 0.26038 1.241 0.48496 1.839 0.77408 2.9269 1.4154 4.5408 3.7293 3.2357 6.8594-1.3977 3.3522-4.2257 3.8994-7.4907 2.5163-12.863-5.4491-25.733-10.881-38.598-16.326-5.2069-2.2038-10.403-4.4339-15.611-6.6339-3.3072-1.3969-5.4885-3.6559-3.9843-7.3466 1.4027-3.4417 4.3701-3.6873 7.5538-2.3471 3.9838 1.6769 7.9663 3.3566 12.302 5.1758z" fill="#9333ea"/>
<path d="m341.61 236.59c8.711-5.3822 18.263-7.9722 27.265-11.844 9.4811-4.0784 19.125-7.7796 28.698-11.644 0.77237-0.31174 1.5342-0.66298 2.3289-0.9033 2.9975-0.90645 5.8623-0.76132 7.1676 2.5159 1.3414 3.3679-0.089905 5.6037-3.5275 6.9843-14.214 5.709-28.367 11.571-42.544 17.373-4.1603 1.7026-8.3028 3.4529-12.499 5.0623-2.2651 0.86879-4.605 1.0781-6.5259-0.85783-1.9195-1.9345-1.8924-4.1242-0.3623-6.6867z" fill="#9333ea"/>
<path d="m321.02 289.53c3.5897 0.16058 4.8355 2.5396 5.8573 5.0597 7.2415 17.86 14.465 35.728 21.66 53.607 1.219 3.0291 1.4206 6.1955-1.9997 7.7539-3.5461 1.6157-6.0406-0.19864-7.4396-3.6565-7.2913-18.023-14.677-36.008-21.811-54.093-1.3749-3.4853-1.8768-7.396 3.7332-8.6714z" fill="#9333ea"/>
<path d="m210.82 209.08c16.493 5.9031 31.978 13.241 47.834 19.684 2.9255 1.1888 5.8024 2.4968 8.7114 3.7268 3.4057 1.4401 6.0218 3.6544 4.3276 7.6038-1.5766 3.6753-4.8244 3.4626-8.0835 2.0715-18.04-7.6996-36.082-15.393-54.133-23.065-2.3647-1.0051-3.914-2.5406-3.7589-5.2593 0.16713-2.931 1.7896-4.5302 5.1028-4.7619z" fill="#9333ea"/>
<path d="m271.05 268.45c0.78104 3.7175-0.72021 5.8214-3.7203 7.0334-18.356 7.4156-36.703 14.852-55.083 22.207-2.905 1.1625-5.8686 0.9241-7.1835-2.3495-1.332-3.3161 0.1125-5.7511 3.4652-7.1138 18.191-7.3936 36.356-14.851 54.558-22.216 2.9933-1.2111 5.9115-1.262 7.9638 2.4385z" fill="#9333ea"/>
<path d="m280.26 175.83c4.6658 11.604 9.2287 22.838 13.755 34.086 0.55368 1.3761 1.0886 2.8033 1.3191 4.2565 0.42355 2.6703-0.12326 5.1159-3.0307 6.0736-3.0532 1.0057-5.2435-0.41632-6.4285-3.18-2.617-6.1039-5.1115-12.261-7.5998-18.419-4.6661-11.548-9.2941-23.112-13.932-34.671-0.43277-1.0786-0.88696-2.1549-1.2222-3.2651-0.8714-2.8864-0.32471-5.508 2.5642-6.7256 3.0764-1.2967 5.5216-0.070282 6.8315 3.0695 2.5577 6.1304 5.0878 12.272 7.7435 18.776z" fill="#9333ea"/>
<path d="m453.18 191.06c2.9639-1.2182 5.5774-2.2877 8.1984-3.3383 3.3628-1.348 6.0364-0.43042 7.3171 2.9216 1.247 3.2635-0.57825 5.4089-3.5067 6.6705-2.5915 1.1164-5.2366 2.1085-7.8618 3.1462-2.919 1.1539-5.8591 1.1922-7.3932-1.8638-1.578-3.1434-0.32391-5.8007 3.2462-7.5361z" fill="#9333ea"/>
<path d="m443.88 206.01c-3.1502 1.2141-5.916 2.3631-8.7491 3.3107-2.6899 0.89972-5.1767 0.3082-6.221-2.471-1.1045-2.9393-0.39142-5.6512 2.7751-7.0752 2.575-1.158 5.2333-2.1295 7.8393-3.2204 3.2825-1.3741 6.4466-1.4049 8.1608 2.1243 1.6712 3.4406-0.60321 5.5896-3.8051 7.3315z" fill="#9333ea"/>
<path d="m293.25 234.4c7.3533-4.1275 14.515-4.9212 21.847-1.3174 0.12561 2.8208-1.9279 3.2497-3.4706 3.9742-3.8876 1.8256-7.8831 3.4222-11.765 5.2586-2.5373 1.2002-4.8461 1.2003-6.7977-0.88882-1.996-2.1367-1.7882-4.4695 0.18707-7.0265z" fill="#9333ea"/>
<path d="m314.79 267.92c4.9193 3.5112 4.828 7.7673-0.049194 9.918-6.6417 2.9288-13.284 3.1789-20.494-1.2931 6.5093-4.6346 13.048-7.2755 20.543-8.6249z" fill="#9333ea"/>
<path d="m244.36 396.61c3.1672 1.418 3.6531 3.9532 2.8962 6.424-1.1112 3.627-2.6015 7.1763-4.3106 10.567-1.0259 2.0355-3.118 3.0211-5.5208 2.3923-2.1382-0.55954-3.7108-2.1135-3.577-4.2573 0.33778-5.414 2.5652-10.214 5.9619-14.389 0.96181-1.1822 2.642-1.2975 4.5503-0.73749z" fill="#9333ea"/>
<path d="m448.63 321.4c-1.4718-2.5175-1.6479-4.6899 0.25565-6.6451 1.928-1.9803 4.1995-1.5748 6.4439-0.69907 2.9179 1.1385 5.9065 2.1616 8.6737 3.6013 2.5826 1.3437 3.9599 3.6709 2.6128 6.6075-1.2933 2.8194-3.7757 3.7317-6.6156 2.6276-3.8185-1.4845-7.8958-2.4736-11.37-5.4922z" fill="#9333ea"/>
<path d="m147.98 322.82c-3.1868-0.5318-4.8854-2.2209-4.985-5.071-0.10283-2.945 1.9453-4.4222 4.4063-5.3958 2.7828-1.1009 5.5498-2.262 8.3919-3.187 2.6929-0.87653 5.1961-0.21616 6.1884 2.5714 0.94717 2.6609 0.62186 5.4215-2.4777 6.7301-3.67 1.5495-7.4241 2.8998-11.524 4.3524z" fill="#9333ea"/>
<path d="m179.37 310.59c-3.1354 1.226-5.8939 2.389-8.7247 3.3361-2.9931 1.0014-5.3686-0.10617-6.5145-2.9481-1.1002-2.7285 0.18051-4.9712 2.6568-6.2296 2.6555-1.3495 5.5152-2.2907 8.244-3.5039 3.0096-1.3379 6.1677-1.8015 7.853 1.4766 1.6849 3.2775 0.3109 6.1294-3.5146 7.8688z" fill="#9333ea"/>
<path d="m247.76 395.24c-1.2057-0.13974-2.1652-0.088746-2.7706-0.52692-3.1727-2.2963-3.0233-5.6011-1.4237-8.4166 2.1936-3.8609 1.7323-10.062 8.1615-10.539 2.7041-0.20056 4.2416 1.5708 4.6925 4.1618 0.68524 3.9374-4.4256 13.333-8.6597 15.321z" fill="#9333ea"/>
<path d="m256.86 134.18c-2.4241 0.15948-4.0386-0.69406-4.9878-2.3991-1.9426-3.4897-3.421-7.205-4.3569-11.085-0.61024-2.5298 0.2361-4.7697 2.8095-5.6668 2.6077-0.90913 5.1004-0.26602 6.364 2.3856 1.5675 3.2894 2.9714 6.6812 4.1264 10.136 1.0846 3.2438-0.43378 5.4322-3.9552 6.6296z" fill="#9333ea"/>
<path d="m150.56 193.54c-2.2944-0.77733-4.041-1.6419-4.982-3.6247-1.4004-2.951-0.53258-5.2555 2.1933-6.714 3.1722-1.6973 15.378 3.6447 16.414 7.0299 1.1332 3.7033-1.3449 6.8356-5.2942 6.1665-2.7324-0.46294-5.3197-1.7822-8.3311-2.8577z" fill="#9333ea"/>
<path d="m358.47 377.98c4.2209 3.732 5.1932 8.7298 6.6001 13.425 0.74985 2.5022-0.8523 4.5034-3.2711 5.4463-2.3433 0.91345-4.3987 0.018646-5.5975-1.9931-2.123-3.5626-3.8035-7.4051-4.5637-11.486-0.74423-3.9958 1.3284-5.6151 6.8322-5.3915z" fill="#9333ea"/>
<path d="m440.36 307.5c1.2414 0.59213 2.1631 0.97595 3.0138 1.4797 2.4342 1.4413 3.5363 3.5935 2.5165 6.2851-1.0356 2.7334-3.5222 3.7629-6.0872 2.921-3.7409-1.2279-7.3939-2.8567-10.869-4.7169-2.5679-1.3745-2.8788-4.0242-1.7046-6.5061 1.1401-2.41 3.4178-3.1306 5.886-2.3697 2.3565 0.7265 4.5995 1.8208 7.2446 2.9069z" fill="#9333ea"/>
<path d="m360.32 401.51c4.2355-4.147 7.177-3.837 9.4974 0.86282 1.3934 2.8221 2.5157 5.8018 3.4973 8.7967 0.96515 2.9449-0.078217 5.3233-2.9798 6.5274-2.8657 1.1892-5.0705-0.20648-6.1187-2.7272-1.7544-4.219-4.7552-8.1053-3.8963-13.46z" fill="#9333ea"/>
<path d="m366.57 101.67c0.74515-1.7097 1.2458-3.122 1.9549-4.4206 1.4312-2.6212 3.592-3.9843 6.5584-2.7624 2.9085 1.198 3.8134 3.6236 2.8112 6.5121-1.0262 2.9582-2.2909 5.842-3.5913 8.6945-1.2846 2.8176-3.368 4.756-6.645 3.5499-3.2945-1.2125-3.5153-4.0818-2.7726-7.045 0.3588-1.4315 1.0135-2.7888 1.6844-4.5285z" fill="#9333ea"/>
<path d="m173.74 203.35c-1.7188-0.73889-3.0871-1.3426-4.442-1.9752-3.0025-1.4019-4.3579-3.7872-3.1753-6.8969 1.3037-3.4283 4.3379-3.2934 7.1677-2.3628 2.831 0.93102 5.5589 2.2077 8.2666 3.4727 2.8931 1.3515 4.6368 3.6532 3.2963 6.8165-1.429 3.3721-4.3826 3.7158-7.5741 2.5011-1.0854-0.41316-2.1231-0.95189-3.5392-1.5553z" fill="#9333ea"/>
<path d="m357.15 124.16c1.1897-2.5986 2.0732-4.942 3.298-7.0908 1.2086-2.1205 3.3089-2.7798 5.6024-2.0563 2.3622 0.74512 3.5143 2.6661 3.183 5.0233-0.65466 4.658-2.5823 8.8983-5.3185 12.685-1.2846 1.7776-3.4041 2.0902-5.4151 1.2068-1.9734-0.86684-3.222-2.5162-2.9503-4.7251 0.19714-1.6023 0.94272-3.137 1.6004-5.0424z" fill="#9333ea"/>
<path d="m249.05 98.076c1.1523 3.1667 2.3968 5.9106 3.1204 8.7856 0.67195 2.6697-0.28644 5.0791-3.0471 6.07-2.7999 1.005-4.9237-0.37299-6.1446-2.8533-1.2429-2.5249-2.1087-5.2324-3.2457-7.8132-1.4415-3.2723-1.6066-6.3827 2.0675-8.0438 3.4062-1.5399 5.6677 0.42332 7.2495 3.8546z" fill="#9333ea"/>
<path d="m319.07 251.62c-1.9044-3.8581-1.7486-7.1336 2.3004-8.5138 4.1169-1.4034 6.0773 1.452 7.0671 5.0172 1.4759 5.3162 2.2321 10.613-0.94543 16.421-4.2511-3.6356-5.8231-8.4058-8.4221-12.925z" fill="#9333ea"/>
<path d="m282.81 264.94c-2.6411-6.2422-2.9052-12.047 0.1792-18.799 5.0833 5.1891 7.6093 10.655 9.2111 16.537 0.55035 2.021-0.61182 3.867-2.7658 4.7543-2.7722 1.142-4.8187 0.16208-6.6245-2.493z" fill="#9333ea"/>
<path d="m262.51 136.01c1.5863 0.78499 2.4175 1.7654 3.02 2.9893 1.4303 2.9052 2.7619 5.7952-0.24457 8.5581-1.5893 1.4605-3.48 2.2645-5.3831 0.93535-3.0816-2.1522-4.5141-5.4359-3.8465-9.0202 0.5477-2.9408 2.9756-4.1957 6.4541-3.4626z" fill="#9333ea"/>
<path d="m425.58 212.49c-1.2303 0.88377-2.1668 1.5663-3.1922 2.0667-2.6737 1.3048-5.3801 2.006-7.5321-0.86571-1.719-2.2937-1.6926-4.8116 0.50018-6.6426 2.5706-2.1464 5.738-3.8822 9.0483-2.009 2.7873 1.5772 3.4804 4.2707 1.1758 7.4506z" fill="#9333ea"/>
<path d="m195.62 211.36c-1.1965-0.017944-2.0722 0.077225-2.8408-0.16595-2.7276-0.86298-5.4913-1.7848-5.9831-5.2115-0.28368-1.9764 0.35805-3.6035 2.0706-4.7383 2.6729-1.7712 5.1318-0.48955 7.5442 0.61028 2.103 0.95877 3.587 2.6264 3.522 5.0073-0.065628 2.4049-1.4759 3.9893-4.3129 4.4982z" fill="#9333ea"/>
<path d="m260.27 361.74c3.6186 4.0338 2.2564 7.7027-0.40308 10.943-2.4667 3.0051-6.5838 2.1881-8.0142-1.3864-1.2615-3.1526 0.24266-5.8877 1.9437-8.323 1.4624-2.0935 3.6529-2.7699 6.4735-1.2332z" fill="#9333ea"/>
<path d="m356.08 373.12c-2.0541 2.6336-4.4355 4.0344-7.0149 1.851-2.7552-2.3321-4.4991-5.541-3.2538-9.2938 1.183-3.5651 6.1196-4.0339 8.5362-0.8812 1.7775 2.3189 2.6471 4.993 1.7326 8.3239z" fill="#9333ea"/>
<path d="m192.27 305.25c-3.2052 0.62796-5.6815 0.29413-6.9359-2.7572-0.96854-2.3561-0.067978-4.3365 1.8247-5.6151 2.5619-1.7306 5.2917-3.7457 8.6195-1.8156 1.6443 0.9537 2.6106 2.531 2.416 4.5523-0.3231 3.3552-2.8071 4.598-5.9243 5.6356z" fill="#9333ea"/>
<path d="m424.55 307.13c-3.9297 2.9909-7.8662 2.8288-10.823-0.18655-1.3336-1.36-2.1869-2.9924-1.5332-4.9399 0.69705-2.0768 2.2105-3.1417 4.4558-3.3274 5.5322-0.4574 8.7725 2.7399 7.9006 8.4538z" fill="#9333ea"/>
<path d="m349.63 144.64c-0.006775-1.035-0.096283-1.7294 0.073089-2.3535 0.84232-3.1034 1.7675-6.2551 5.7607-6.4756 2.4548-0.13557 4.2832 1.1974 4.7551 3.5512 0.75684 3.7756-0.68982 7.0619-3.9221 8.9573-3.4099 1.9995-5.6247 0.22916-6.6667-3.6794z" fill="#9333ea"/>
</svg>